<?xml version="1.0" encoding="UTF-8" standalone="no"?>
<!-- Created with Inkscape (http://www.inkscape.org/) -->

<svg
   width="47.708229mm"
   height="23.900192mm"
   viewBox="0 0 47.708229 23.900192"
   version="1.1"
   id="svg5"
   xml:space="preserve"
   inkscape:version="1.2.2 (1:1.2.2+202212051552+b0a8486541)"
   sodipodi:docname="logo.svg"
   inkscape:export-filename="logo.png"
   inkscape:export-xdpi="53.240292"
   inkscape:export-ydpi="53.240292"
   xmlns:inkscape="http://www.inkscape.org/namespaces/inkscape"
   xmlns:sodipodi="http://sodipodi.sourceforge.net/DTD/sodipodi-0.dtd"
   xmlns="http://www.w3.org/2000/svg"
   xmlns:svg="http://www.w3.org/2000/svg"><sodipodi:namedview
     id="namedview7"
     pagecolor="#ffffff"
     bordercolor="#000000"
     borderopacity="0.25"
     inkscape:showpageshadow="2"
     inkscape:pageopacity="0.0"
     inkscape:pagecheckerboard="0"
     inkscape:deskcolor="#d1d1d1"
     inkscape:document-units="mm"
     showgrid="false"
     inkscape:zoom="1.4075477"
     inkscape:cx="-20.60321"
     inkscape:cy="69.979868"
     inkscape:window-width="1920"
     inkscape:window-height="956"
     inkscape:window-x="0"
     inkscape:window-y="27"
     inkscape:window-maximized="1"
     inkscape:current-layer="layer1" /><defs
     id="defs2" /><g
     inkscape:label="Capa 1"
     inkscape:groupmode="layer"
     id="layer1"
     transform="translate(-100.90559,-124.59981)"><g
       id="g2518"
       transform="translate(-15.880862,-2.8156769)"
       style="fill:#9cb4b0"><path
         style="fill:#9cb4b0;stroke:none;stroke-width:0.163335;stroke-linecap:square;stroke-linejoin:bevel;-inkscape-stroke:none;stop-color:#000000"
         d="m 119.22093,148.60694 c -0.0779,-0.0631 -0.0894,-0.10255 -0.0891,-0.30703 4.4e-4,-0.30489 0.0492,-0.39299 0.23428,-0.42258 0.18268,-0.0292 0.2066,-0.0594 0.26,-0.32793 0.0604,-0.30383 0.0912,-11.5181 0.0352,-12.8149 -0.0465,-1.0758 -0.0596,-1.15742 -0.19673,-1.2234 -0.13835,-0.0666 -0.20005,-0.17383 -0.25878,-0.44983 -0.0555,-0.26104 -0.0841,-0.23682 -0.10724,0.091 -0.0186,0.26338 -0.10937,0.36213 -0.31676,0.34462 -0.20371,-0.0172 -0.22737,-0.0998 -0.21567,-0.75295 0.007,-0.36292 0.025,-0.57321 0.0527,-0.60091 0.0235,-0.0234 0.11962,-0.0513 0.21362,-0.0619 0.12022,-0.0136 0.18548,-0.0423 0.22,-0.0968 0.0457,-0.0722 0.14693,-0.89879 0.11409,-0.93162 -0.008,-0.008 -0.0562,0.0122 -0.10665,0.0453 -0.0614,0.0402 -0.15065,0.0564 -0.26944,0.0488 l -0.17761,-0.0113 0.008,-0.25707 0.008,-0.25707 -0.0733,0.0986 c -0.0931,0.12526 -0.28365,0.19182 -0.41072,0.1435 -0.13464,-0.0512 -0.14902,-0.0947 -0.0976,-0.2953 0.0441,-0.17193 0.0519,-0.17987 0.1989,-0.20192 0.26694,-0.04 3.28437,-0.0273 3.65304,0.0154 0.26265,0.0304 0.36758,0.0588 0.42827,0.11584 0.0669,0.0629 0.16356,0.0828 0.57717,0.1189 0.27323,0.0239 0.50834,0.0549 0.52247,0.0691 0.0971,0.0971 -1.07035,0.23479 -1.28677,0.15174 -0.0482,-0.0185 -0.0549,-0.0543 -0.035,-0.18722 0.0221,-0.14761 0.0176,-0.16301 -0.0443,-0.15143 -0.15044,0.0281 -0.25821,0.44954 -0.15161,0.59283 0.0851,0.11434 0.41146,0.13811 1.75357,0.1277 1.02103,-0.008 1.33407,5.9e-4 1.44381,0.0394 0.1308,0.0463 0.13621,0.0539 0.0814,0.11438 -0.034,0.0376 -0.13695,0.0741 -0.24499,0.0869 -0.20861,0.0247 -0.28872,0.0737 -0.28872,0.17678 0,0.0817 0.0988,0.12851 0.3367,0.15956 0.0943,0.0123 0.19053,0.0454 0.21387,0.0735 0.0346,0.0416 0.013,0.0597 -0.11635,0.0973 -0.18385,0.0534 -1.84781,0.0688 -2.13592,0.0197 -0.17038,-0.029 -0.17512,-0.0331 -0.11575,-0.0987 0.13764,-0.1521 -0.0767,-0.17595 -0.27581,-0.0307 -0.1398,0.10199 -0.43153,0.14128 -1.04899,0.14128 -0.68387,0 -1.09883,-0.0505 -1.23786,-0.15048 -0.1055,-0.0759 -0.17365,-0.0668 -0.17365,0.0233 0,0.0839 -0.14917,0.15351 -0.38406,0.17918 -0.24949,0.0273 -0.38428,0.11353 -0.30355,0.19426 0.0691,0.0691 0.576,0.1203 1.20174,0.12133 0.54776,8.7e-4 1.26255,0.0476 1.45032,0.0947 l 0.10622,0.0267 -0.0897,0.0359 c -0.0493,0.0197 -0.60631,0.0496 -1.23771,0.0664 -0.6314,0.0168 -1.21224,0.0478 -1.29074,0.069 -0.16365,0.0441 -0.21714,0.12911 -0.11544,0.18353 0.11451,0.0613 0.85658,0.11052 1.67282,0.111 0.83304,4.3e-4 1.87068,0.0548 2.00647,0.10502 0.0801,0.0296 0.078,0.0331 -0.043,0.0701 -0.07,0.0214 -0.33706,0.0476 -0.5935,0.0582 -0.50742,0.021 -0.6281,0.0569 -0.61014,0.1816 0.0169,0.11731 0.16253,0.17172 0.46127,0.17233 l 0.26625,5.9e-4 v 7.12443 7.12444 h -0.72867 c -0.40077,0 -0.95122,0.0107 -1.22322,0.0237 l -0.49454,0.0237 0.0161,-6.42447 c 0.0152,-6.06492 -5.9e-4,-7.94529 -0.0667,-7.94529 -0.0604,0 -0.0724,0.32512 -0.11436,3.10317 -0.0338,2.23236 -0.0333,3.71942 0.002,6.73884 0.025,2.1309 0.0574,4.08551 0.072,4.34358 0.0241,0.42469 0.0342,0.47455 0.10681,0.5254 0.0441,0.0309 0.0802,0.0879 0.0802,0.12663 0,0.0595 -0.0181,0.0668 -0.11591,0.0473 -0.11316,-0.0226 -0.11537,-0.0205 -0.0934,0.0895 0.033,0.16484 -0.0401,0.20455 -0.40921,0.22219 -0.27583,0.0132 -0.33007,0.006 -0.40758,-0.0572 z m 1.79728,-15.23305 c 0,-0.0111 -0.024,-0.0666 -0.0534,-0.12336 -0.0578,-0.11179 -0.24189,-0.20836 -0.33159,-0.17394 -0.0923,0.0354 -0.0645,0.0827 0.1187,0.20254 0.1619,0.10588 0.26625,0.14302 0.26625,0.0948 z m 2.59861,-1.76378 c 0.0106,-0.15863 -0.0339,-0.25919 -0.0973,-0.22002 -0.044,0.0272 -0.0553,0.23439 -0.018,0.3316 0.0394,0.10263 0.10522,0.0389 0.11523,-0.11158 z m -1.16638,0.0532 c 0.14589,-0.0885 0.18225,-0.13311 0.18305,-0.22477 0.001,-0.11147 -0.13929,-0.0723 -0.31241,0.0873 -0.0904,0.0834 -0.16443,0.16599 -0.16443,0.18362 0,0.0585 0.16345,0.0329 0.29379,-0.0462 z m -2.14929,-0.28721 c 0.0677,-0.13101 0.0733,-0.32002 0.0101,-0.34268 -0.13196,-0.0473 -0.24078,0.15498 -0.19071,0.3545 0.032,0.12762 0.11116,0.12244 0.18058,-0.0118 z"
         id="path2475" /><path
         style="fill:#9cb4b0;stroke:none;stroke-width:0.163335;stroke-linecap:square;stroke-linejoin:bevel;-inkscape-stroke:none;stop-color:#000000"
         d="m 122.92768,147.75282 c -0.10651,-0.19902 -0.11719,-0.69727 -0.13461,-6.27948 -0.018,-5.76079 0.005,-7.46384 0.10485,-7.76711 0.0789,-0.23979 0.26446,-0.21681 0.32718,0.0405 0.0846,0.34691 0.11203,2.62514 0.0952,7.89184 -0.0171,5.33869 -0.0301,5.91772 -0.1373,6.1181 -0.0497,0.0928 -0.20482,0.0905 -0.25532,-0.004 z"
         id="path2477" /><path
         style="fill:#9cb4b0;stroke:none;stroke-width:0.163335;stroke-linecap:square;stroke-linejoin:bevel;-inkscape-stroke:none;stop-color:#000000"
         d="m 117.3707,130.44309 c -0.0756,-0.0991 -0.1281,-0.12792 -0.26792,-0.14708 -0.22396,-0.0307 -0.30783,-0.10713 -0.30783,-0.28053 0,-0.16734 0.0761,-0.24047 0.28604,-0.2749 0.2548,-0.0418 0.28319,-0.1173 0.28319,-0.75337 0,-0.45102 -0.0103,-0.55144 -0.0651,-0.6351 -0.0442,-0.0675 -0.0973,-0.0995 -0.16526,-0.0999 -0.27037,-0.001 -0.33885,-0.0929 -0.33885,-0.45326 0,-0.36456 0.0129,-0.37262 0.59391,-0.37203 0.52634,5.8e-4 0.69736,0.0466 0.74639,0.20108 0.0339,0.10676 0.0794,0.0907 0.10491,-0.0369 0.0153,-0.0763 0.0539,-0.12303 0.12395,-0.1501 0.13194,-0.051 0.38704,-0.0223 0.50828,0.0572 0.10492,0.0687 0.22203,0.30606 0.17442,0.35343 -0.0581,0.0578 -1.04534,0.0801 -1.21801,0.0275 -0.0878,-0.0268 -0.16167,-0.0652 -0.1641,-0.0854 -0.002,-0.0202 0.0481,-0.0698 0.11224,-0.11017 0.0642,-0.0404 0.11195,-0.09 0.10619,-0.11017 -0.0156,-0.0545 -0.22829,-0.0658 -0.3196,-0.017 -0.18789,0.10056 0.0175,0.66004 0.26591,0.72441 0.15911,0.0412 0.24205,0.21376 0.29318,0.60986 0.0227,0.17549 0.0508,0.30941 0.0627,0.29761 0.0118,-0.0118 0.0302,-0.21474 0.0409,-0.45095 l 0.0194,-0.42949 0.86301,-0.0102 c 0.93282,-0.0111 1.30693,0.0248 1.46294,0.14012 0.11567,0.0855 0.54408,0.14472 1.05265,0.14547 0.41365,5.8e-4 0.61816,0.0506 0.58852,0.144 -0.0266,0.0839 0.0658,0.16276 0.15698,0.13383 0.0383,-0.0121 0.0878,-0.062 0.10999,-0.11067 0.0587,-0.12876 0.24211,-0.14873 1.36631,-0.14873 0.71522,0 1.00968,0.0129 1.11089,0.0488 0.0757,0.0268 0.13772,0.0623 0.13772,0.079 0,0.0611 0.36575,0.1126 1.02827,0.14487 0.37366,0.0182 0.72071,0.0494 0.7712,0.0693 l 0.0918,0.0362 -0.11017,0.0472 c -0.12497,0.0536 -1.72405,0.0732 -1.90265,0.0234 -0.0894,-0.0249 -0.10165,-0.0446 -0.0918,-0.14689 0.01,-0.0998 -0.002,-0.11999 -0.0743,-0.13024 -0.11524,-0.0163 -0.2265,0.0917 -0.2265,0.21981 0,0.0829 -0.0171,0.10516 -0.0826,0.10779 -0.0455,0.002 -0.49578,0.007 -1.00073,0.0113 -0.94218,0.008 -1.28813,0.049 -1.32947,0.1567 -0.032,0.0835 0.0419,0.13165 0.27278,0.17776 0.24646,0.0492 0.27916,0.12381 0.0835,0.19054 -0.18328,0.0625 -0.96161,0.0579 -1.33892,-0.008 -0.35424,-0.0618 -0.47232,-0.11115 -0.60467,-0.25281 -0.11826,-0.12659 -0.14968,-0.12021 -0.14968,0.0304 0,0.20161 -0.11416,0.22319 -1.18047,0.22319 -0.81039,0 -0.91246,-0.007 -0.97607,-0.0643 -0.0391,-0.0353 -0.087,-0.0643 -0.10641,-0.0643 -0.049,0 -0.31745,0.28226 -0.43274,0.45499 -0.13371,0.20035 -0.12571,0.30253 0.0287,0.36706 0.0682,0.0285 0.13448,0.0687 0.14723,0.0893 0.0467,0.0755 -0.0903,0.1536 -0.26955,0.1536 -0.15727,0 -0.18694,-0.0135 -0.27064,-0.12324 z m 2.29172,-1.01519 c 0.0704,0 0.0299,-0.14098 -0.0568,-0.19776 -0.11436,-0.0749 -0.18922,-0.0755 -0.21758,-0.002 -0.0427,0.1112 0.081,0.24976 0.19174,0.21478 0.0269,-0.008 0.0641,-0.0155 0.0826,-0.0155 z m 0.82869,-0.31089 c 0.0752,-0.0527 0.19658,-0.2666 0.19658,-0.34651 0,-0.0694 -0.0759,-0.0446 -0.22486,0.0734 -0.15684,0.12422 -0.23171,0.23481 -0.197,0.29097 0.0323,0.0523 0.13692,0.044 0.22528,-0.0179 z m -0.37274,-0.60705 c 0.0124,-0.0201 -0.018,-0.0551 -0.0677,-0.0777 -0.10019,-0.0457 -0.28467,-0.004 -0.3094,0.0707 -0.0182,0.0545 0.34359,0.0612 0.37709,0.007 z"
         id="path2479" /><path
         style="fill:#9cb4b0;stroke:none;stroke-width:0.081668;stroke-linecap:square;stroke-linejoin:bevel;-inkscape-stroke:none;stop-color:#000000"
         d="m 123.02195,129.65926 c -0.0902,-0.0338 -0.10971,-0.0537 -0.0957,-0.0977 0.0374,-0.11789 0.48793,-0.15824 0.6521,-0.0584 0.0577,0.0351 0.059,0.0383 0.0291,0.0714 -0.0778,0.086 -0.44146,0.13852 -0.58543,0.0846 z"
         id="path2481" /><path
         style="fill:#9cb4b0;stroke:none;stroke-width:0.081668;stroke-linecap:square;stroke-linejoin:bevel;-inkscape-stroke:none;stop-color:#000000"
         d="m 127.23373,129.0479 c -0.14451,-0.0745 -0.0354,-0.19863 0.16186,-0.18404 0.0753,0.006 0.10873,0.0184 0.14647,0.0561 l 0.0489,0.0489 -0.0489,0.0489 c -0.0646,0.0646 -0.21333,0.0792 -0.30833,0.0302 z"
         id="path2483" /><path
         style="fill:#9cb4b0;stroke:none;stroke-width:0.081668;stroke-linecap:square;stroke-linejoin:bevel;-inkscape-stroke:none;stop-color:#000000"
         d="m 123.6005,133.20934 c -0.11609,-0.0207 -0.22208,-0.0675 -0.2362,-0.10429 -0.0332,-0.0865 0.20834,-0.16124 0.47245,-0.14617 0.20043,0.0114 0.29895,0.0364 0.35158,0.089 0.0348,0.0348 0.0352,0.0391 0.006,0.0712 -0.0724,0.08 -0.38495,0.12751 -0.59395,0.0903 z"
         id="path2485" /><path
         style="fill:#9cb4b0;stroke:none;stroke-width:0.081668;stroke-linecap:square;stroke-linejoin:bevel;-inkscape-stroke:none;stop-color:#000000"
         d="m 116.8962,151.28319 c -0.0958,-0.048 -0.1099,-0.0935 -0.10975,-0.35344 1.1e-4,-0.1858 0.007,-0.24411 0.0349,-0.30608 0.0438,-0.0966 0.0733,-0.11177 0.2557,-0.13218 0.17703,-0.0198 0.25629,-0.0609 0.28487,-0.14773 0.0267,-0.081 0.11384,-0.12654 0.26944,-0.14072 0.2848,-0.026 0.29134,-0.0416 0.31108,-0.74225 0.0163,-0.57759 0.0281,-0.63528 0.14188,-0.68925 0.099,-0.047 0.49325,-0.0314 0.61734,0.0244 0.0507,0.0228 0.0928,0.0552 0.0981,0.0755 0.0273,0.10436 0.38836,0.14058 1.66756,0.16729 0.94934,0.0198 1.28832,0.0468 1.38632,0.11043 0.0245,0.0159 0.0245,0.0199 0,0.0362 -0.11125,0.0742 -0.40146,0.0921 -1.59749,0.0984 -1.12647,0.006 -1.26909,0.0145 -1.38632,0.0828 -0.0728,0.0424 -0.0751,0.11177 -0.005,0.14542 0.11059,0.053 0.45769,0.0779 1.45545,0.10454 0.96304,0.0257 1.22031,0.0408 1.4365,0.0845 0.12083,0.0244 0.13571,0.0468 0.0468,0.0703 -0.1694,0.0449 -0.42402,0.0593 -1.33282,0.0753 -1.3315,0.0235 -1.57117,0.051 -1.64487,0.18867 -0.0382,0.0714 -0.15145,0.12279 -0.32912,0.14933 -0.18315,0.0274 -0.25782,0.0659 -0.27278,0.14068 -0.0159,0.0793 -0.0799,0.12603 -0.19916,0.14545 -0.20056,0.0326 -0.26602,0.15475 -0.26602,0.49622 0,0.16339 -0.005,0.20051 -0.0321,0.22427 -0.1169,0.10359 -0.68256,0.16621 -0.83062,0.092 z"
         id="path2489" /><path
         style="fill:#9cb4b0;stroke:none;stroke-width:0.081668;stroke-linecap:square;stroke-linejoin:bevel;-inkscape-stroke:none;stop-color:#000000"
         d="m 118.34654,151.00101 c -0.27383,-0.0314 -0.40843,-0.0746 -0.37932,-0.12166 0.0338,-0.0546 0.67798,-0.10535 1.13216,-0.0891 0.43548,0.0155 0.63507,0.0503 0.65585,0.11429 0.0104,0.032 -0.12295,0.0768 -0.29118,0.0979 -0.17853,0.0224 -0.91803,0.0214 -1.11751,-0.001 z"
         id="path2491" /><path
         style="fill:#9cb4b0;stroke:none;stroke-width:0.081668;stroke-linecap:square;stroke-linejoin:bevel;-inkscape-stroke:none;stop-color:#000000"
         d="m 120.40322,151.00242 c -0.60574,-0.0585 -0.51068,-0.15592 0.19927,-0.20425 0.48334,-0.0329 1.18173,0.0181 1.25528,0.0916 0.0263,0.0264 -0.13404,0.0708 -0.34379,0.0951 -0.2323,0.027 -0.90273,0.0376 -1.11076,0.0175 z"
         id="path2493" /><path
         style="fill:#9cb4b0;stroke:none;stroke-width:0.081668;stroke-linecap:square;stroke-linejoin:bevel;-inkscape-stroke:none;stop-color:#000000"
         d="m 122.14058,149.82063 c -0.10178,-0.038 -0.11644,-0.0578 -0.076,-0.10252 0.0537,-0.0594 0.19818,-0.0921 0.40662,-0.0921 0.20436,0 0.35017,0.0236 0.4041,0.0653 0.0332,0.0257 0.0331,0.0273 -0.002,0.0546 -0.10678,0.0824 -0.58204,0.13087 -0.73251,0.0747 z"
         id="path2495" /><path
         style="fill:#9cb4b0;stroke:none;stroke-width:0.081668;stroke-linecap:square;stroke-linejoin:bevel;-inkscape-stroke:none;stop-color:#000000"
         d="m 122.40525,149.25859 c -0.19735,-0.0207 -0.32349,-0.051 -0.35093,-0.084 -0.0282,-0.0339 0.0509,-0.0675 0.24004,-0.10189 0.21193,-0.0385 1.12174,-0.0331 1.3025,0.008 0.20992,0.0475 0.21808,0.0826 0.0287,0.12359 -0.25966,0.0563 -0.92227,0.0859 -1.22035,0.0545 z"
         id="path2497" /><path
         style="fill:#9cb4b0;stroke:none;stroke-width:0.081668;stroke-linecap:square;stroke-linejoin:bevel;-inkscape-stroke:none;stop-color:#000000"
         d="m 121.02739,148.66965 c -0.44311,-0.026 -0.74832,-0.0713 -0.72579,-0.1078 0.0505,-0.0818 1.65022,-0.14173 2.50689,-0.094 0.57774,0.0322 0.87418,0.0741 0.8036,0.1136 -0.0521,0.0292 -0.37667,0.0687 -0.7288,0.0888 -0.38175,0.0218 -1.48051,0.0214 -1.8559,-5.9e-4 z"
         id="path2499" /><path
         style="fill:#9cb4b0;stroke:none;stroke-width:0.230992;stroke-linecap:square;stroke-linejoin:bevel;-inkscape-stroke:none;stop-color:#000000"
         d="m 124.0924,148.64024 c -0.27803,-0.0343 -0.24052,-0.10166 0.0779,-0.13991 0.62765,-0.0754 1.96976,-0.01 1.81462,0.0889 -0.0756,0.048 -1.58646,0.0887 -1.89252,0.051 z"
         id="path2503" /></g><text
       xml:space="preserve"
       style="font-style:normal;font-variant:normal;font-weight:normal;font-stretch:normal;font-size:9.87777px;line-height:1.6;font-family:Gurajada;-inkscape-font-specification:Gurajada;text-decoration-color:#000000;white-space:pre;fill:#9cb4b0;stroke:none;stroke-width:1.17678;stroke-linecap:square;stroke-linejoin:bevel;-inkscape-stroke:none;stop-color:#000000"
       x="108.62276"
       y="141.32365"
       id="text2574"><tspan
         sodipodi:role="line"
         id="tspan2572"
         style="font-style:normal;font-variant:normal;font-weight:normal;font-stretch:normal;font-family:Gurajada;-inkscape-font-specification:Gurajada;fill:#9cb4b0;stroke-width:1.17678"
         x="108.62276"
         y="141.32365">HERITAGE</tspan></text><text
       xml:space="preserve"
       style="font-size:4.23333px;line-height:1.6;font-family:Gurajada;-inkscape-font-specification:Gurajada;text-decoration-color:#000000;white-space:pre;fill:#9cb4b0;fill-opacity:1;stroke-width:1.17678;stroke-linecap:square;stroke-linejoin:bevel;-inkscape-stroke:none;stop-color:#000000"
       x="109.92244"
       y="144.92578"
       id="text303"><tspan
         sodipodi:role="line"
         id="tspan301"
         style="font-size:4.23333px;fill:#9cb4b0;fill-opacity:1;stroke-width:1.17678"
         x="109.92244"
         y="144.92578">Real estate &amp; investments</tspan></text></g></svg>
